<?xml version="1.0" encoding="utf-8"?>
<!-- Generator: Adobe Illustrator 23.1.0, SVG Export Plug-In . SVG Version: 6.00 Build 0)  -->
<svg version="1.1" id="Camada_1" xmlns="http://www.w3.org/2000/svg" xmlns:xlink="http://www.w3.org/1999/xlink" x="0px" y="0px"
	 viewBox="0 0 280 75" style="enable-background:new 0 0 280 75;" xml:space="preserve">
<style type="text/css">
	.st0{fill:#09439A;}
	.st1{fill:url(#SVGID_1_);}
	.st2{fill:url(#SVGID_2_);}
	.st3{fill:url(#SVGID_3_);}
</style>
<g>
	<path d="M125.9,28.2H136v2.3h-13V9.2h2.9V28.2z"/>
	<path d="M151.6,28.1c-0.5,0.8-1.1,1.5-1.9,2s-1.7,0.7-2.7,0.7c-1.7,0-3.1-0.6-4-1.7s-1.5-2.8-1.5-5.2v-9.3h2.9V24
		c0,1.7,0.2,2.9,0.7,3.5s1.3,1,2.3,1c1,0,1.9-0.2,2.5-0.6s1.2-1,1.5-1.8V14.6h2.9v15.8h-2.6L151.6,28.1z"/>
	<path d="M168,28.5c1,0,1.8-0.3,2.5-0.9s1.1-1.3,1.1-2.2h2.6l0,0.1c0,1.4-0.6,2.6-1.8,3.6c-1.3,1.1-2.7,1.6-4.4,1.6
		c-2.3,0-4.1-0.8-5.3-2.3s-1.8-3.4-1.8-5.7v-0.6c0-2.3,0.6-4.1,1.8-5.6c1.2-1.5,3-2.3,5.3-2.3c1.9,0,3.4,0.5,4.5,1.6s1.7,2.4,1.7,4
		l0,0.1h-2.6c0-1-0.3-1.8-1-2.5s-1.5-1-2.6-1c-1.5,0-2.6,0.5-3.2,1.6s-1,2.4-1,4v0.6c0,1.6,0.3,3,1,4C165.4,28,166.5,28.5,168,28.5z
		"/>
	<path d="M186.9,28.5c1,0,1.8-0.3,2.5-0.9s1.1-1.3,1.1-2.2h2.6l0,0.1c0,1.4-0.6,2.6-1.8,3.6c-1.3,1.1-2.7,1.6-4.4,1.6
		c-2.3,0-4.1-0.8-5.3-2.3s-1.8-3.4-1.8-5.7v-0.6c0-2.3,0.6-4.1,1.8-5.6c1.2-1.5,3-2.3,5.3-2.3c1.9,0,3.4,0.5,4.5,1.6s1.7,2.4,1.7,4
		l0,0.1h-2.6c0-1-0.3-1.8-1-2.5s-1.5-1-2.6-1c-1.5,0-2.6,0.5-3.2,1.6s-1,2.4-1,4v0.6c0,1.6,0.3,3,1,4
		C184.3,28,185.4,28.5,186.9,28.5z"/>
	<path d="M209.1,30.5c-0.1-0.5-0.2-0.9-0.2-1.3c-0.1-0.4-0.1-0.7-0.1-1.1c-0.5,0.8-1.2,1.4-2.1,1.9c-0.9,0.5-1.8,0.8-2.8,0.8
		c-1.7,0-2.9-0.4-3.8-1.3c-0.9-0.8-1.3-2-1.3-3.5c0-1.5,0.6-2.7,1.8-3.6s2.9-1.3,5-1.3h3.1v-1.6c0-0.9-0.3-1.7-0.8-2.2
		s-1.4-0.8-2.4-0.8c-0.9,0-1.7,0.2-2.3,0.7s-0.9,1-0.9,1.7h-2.8l0-0.1c-0.1-1.2,0.5-2.2,1.6-3.2s2.6-1.4,4.4-1.4
		c1.8,0,3.2,0.5,4.3,1.4s1.6,2.2,1.6,3.9v7.6c0,0.6,0,1.1,0.1,1.6s0.2,1,0.3,1.6H209.1z M204.3,28.4c1,0,2-0.3,2.8-0.8
		s1.4-1.1,1.6-1.8v-2.6h-3.2c-1.2,0-2.1,0.3-2.8,0.9c-0.7,0.6-1,1.3-1,2.1c0,0.7,0.2,1.3,0.7,1.7C202.8,28.2,203.5,28.4,204.3,28.4z
		"/>
	<path class="st0" d="M138.5,59.2L138.5,59.2c0.1,2.4-0.6,4.2-2.1,5.6c-1.4,1.3-3.4,2-6,2c-2.6,0-4.7-0.8-6.3-2.5s-2.4-3.8-2.4-6.4
		v-4.2c0-2.6,0.8-4.7,2.3-6.4s3.6-2.5,6.1-2.5c2.6,0,4.7,0.7,6.2,2c1.5,1.4,2.2,3.2,2.2,5.5l0,0.1h-4.2c0-1.4-0.3-2.5-1-3.2
		c-0.7-0.7-1.7-1.1-3.1-1.1c-1.3,0-2.3,0.5-3,1.6s-1.1,2.4-1.1,4v4.3c0,1.6,0.4,3,1.2,4s1.9,1.6,3.2,1.6c1.3,0,2.3-0.4,3-1.1
		c0.6-0.7,1-1.8,1-3.2H138.5z"/>
	<path class="st0" d="M143.6,58.4c0-2.4,0.7-4.3,2-5.8c1.3-1.5,3.1-2.3,5.5-2.3c2.3,0,4.2,0.8,5.5,2.3s2,3.4,2,5.8v0.3
		c0,2.4-0.7,4.3-2,5.8c-1.3,1.5-3.2,2.2-5.5,2.2c-2.3,0-4.2-0.7-5.5-2.2c-1.3-1.5-2-3.4-2-5.8V58.4z M147.8,58.7
		c0,1.4,0.3,2.6,0.8,3.5c0.5,0.9,1.3,1.3,2.5,1.3c1.1,0,1.9-0.4,2.4-1.3c0.5-0.9,0.8-2,0.8-3.5v-0.3c0-1.4-0.3-2.5-0.8-3.4
		s-1.3-1.3-2.4-1.3c-1.1,0-1.9,0.4-2.4,1.3c-0.5,0.9-0.8,2-0.8,3.4V58.7z"/>
	<path class="st0" d="M172.7,62.1c0-0.5-0.2-0.9-0.7-1.2c-0.5-0.3-1.3-0.6-2.5-0.9c-1.9-0.4-3.3-0.9-4.2-1.7c-1-0.7-1.4-1.8-1.4-3.1
		c0-1.4,0.6-2.5,1.7-3.5c1.1-1,2.7-1.4,4.6-1.4c2,0,3.6,0.5,4.8,1.4c1.2,0.9,1.8,2.1,1.7,3.6l0,0.1h-4.1c0-0.6-0.2-1.2-0.6-1.6
		c-0.4-0.4-1-0.6-1.8-0.6c-0.7,0-1.2,0.2-1.6,0.5c-0.4,0.3-0.6,0.8-0.6,1.3c0,0.5,0.2,0.9,0.6,1.2s1.3,0.6,2.5,0.8
		c2,0.4,3.4,1,4.4,1.7s1.4,1.8,1.4,3.1c0,1.4-0.6,2.6-1.8,3.5s-2.8,1.4-4.8,1.4c-2.1,0-3.8-0.5-5-1.6c-1.2-1.1-1.8-2.3-1.8-3.7
		l0-0.1h3.9c0,0.8,0.3,1.5,0.8,1.8s1.2,0.6,2.1,0.6c0.8,0,1.4-0.2,1.8-0.5C172.5,63.1,172.7,62.7,172.7,62.1z"/>
	<path class="st0" d="M187.7,46.8v3.9h2.7v3h-2.7v8.1c0,0.6,0.1,1.1,0.4,1.3s0.6,0.4,1,0.4c0.2,0,0.4,0,0.6,0c0.2,0,0.3-0.1,0.6-0.1
		l0.4,3.1c-0.4,0.1-0.8,0.3-1.3,0.3c-0.4,0.1-0.9,0.1-1.3,0.1c-1.5,0-2.6-0.4-3.4-1.2c-0.8-0.8-1.2-2.1-1.2-3.9v-8.1h-2.3v-3h2.3
		v-3.9H187.7z"/>
	<path class="st0" d="M205.4,66.5c-0.2-0.4-0.3-0.7-0.4-1.1s-0.2-0.8-0.2-1.2c-0.4,0.8-1,1.4-1.7,1.9c-0.7,0.5-1.6,0.8-2.6,0.8
		c-1.7,0-2.9-0.4-3.8-1.3c-0.9-0.9-1.3-2-1.3-3.5c0-1.6,0.6-2.8,1.8-3.6s2.9-1.3,5.2-1.3h2.4v-1.3c0-0.8-0.2-1.4-0.6-1.8
		s-1-0.6-1.8-0.6c-0.7,0-1.2,0.2-1.6,0.5c-0.4,0.3-0.6,0.8-0.6,1.4l-4.1,0l0-0.1c-0.1-1.3,0.5-2.5,1.7-3.5c1.2-1,2.8-1.5,4.8-1.5
		c1.9,0,3.4,0.5,4.6,1.4c1.2,1,1.8,2.3,1.8,4.1v6.5c0,0.7,0.1,1.4,0.2,2.1c0.1,0.7,0.3,1.3,0.5,1.9H205.4z M201.5,63.6
		c0.8,0,1.4-0.2,2-0.6s1-0.8,1.2-1.3v-2.2h-2.4c-0.9,0-1.6,0.2-2.1,0.7c-0.5,0.5-0.7,1-0.7,1.6c0,0.5,0.2,1,0.5,1.3
		S200.9,63.6,201.5,63.6z"/>
</g>
<g>
	<g>
		<path d="M14.8,42.1l-3.6,0.8v0.3l3.6,0.8l23.5,9.6v8.4L4,46v-6.3l34.3-15.9v8.4L14.8,42.1z"/>
		<path d="M48.4,70.8h-8.9L73.5,4.4h8.9L48.4,70.8z"/>
		<path d="M80.5,32.1v-8.2l35.9,15.9V46L80.5,61.9v-8.2l25.1-10l3.6-0.7v-0.3l-3.6-0.8L80.5,32.1z"/>
	</g>
	<g>
		<linearGradient id="SVGID_1_" gradientUnits="userSpaceOnUse" x1="3.9727" y1="37.6179" x2="116.4697" y2="37.6179">
			<stop  offset="0" style="stop-color:#307EF3"/>
			<stop  offset="1" style="stop-color:#09439A"/>
		</linearGradient>
		<path class="st1" d="M14.8,42.1l-3.6,0.8v0.3l3.6,0.8l23.5,9.6v8.4L4,46v-6.3l34.3-15.9v8.4L14.8,42.1z"/>
		<linearGradient id="SVGID_2_" gradientUnits="userSpaceOnUse" x1="3.9727" y1="37.6179" x2="116.4697" y2="37.6179">
			<stop  offset="0" style="stop-color:#307EF3"/>
			<stop  offset="1" style="stop-color:#09439A"/>
		</linearGradient>
		<path class="st2" d="M48.4,70.8h-8.9L73.5,4.4h8.9L48.4,70.8z"/>
		<linearGradient id="SVGID_3_" gradientUnits="userSpaceOnUse" x1="3.9727" y1="37.6179" x2="116.4697" y2="37.6179">
			<stop  offset="0" style="stop-color:#307EF3"/>
			<stop  offset="1" style="stop-color:#09439A"/>
		</linearGradient>
		<path class="st3" d="M80.5,32.1v-8.2l35.9,15.9V46L80.5,61.9v-8.2l25.1-10l3.6-0.7v-0.3l-3.6-0.8L80.5,32.1z"/>
	</g>
</g>
</svg>
