<?xml version="1.0" encoding="utf-8"?>
<!-- Generator: Adobe Illustrator 23.1.0, SVG Export Plug-In . SVG Version: 6.00 Build 0)  -->
<svg version="1.1" id="Camada_1" xmlns="http://www.w3.org/2000/svg" xmlns:xlink="http://www.w3.org/1999/xlink" x="0px" y="0px"
	 viewBox="0 0 280 75" style="enable-background:new 0 0 280 75;" xml:space="preserve">
<style type="text/css">
	.st0{fill:#09439A;}
	.st1{fill:url(#SVGID_1_);}
	.st2{fill:url(#SVGID_2_);}
	.st3{fill:url(#SVGID_3_);}
</style>
<g>
	<path d="M126.7,9.2l6.8,17.3h0.1l6.8-17.3h3.7v21.3h-2.9V22l0.3-8.7l-0.1,0l-6.9,17.1h-1.9l-6.9-17.1l-0.1,0l0.3,8.6v8.4H123V9.2
		H126.7z"/>
	<path d="M161.6,30.5c-0.1-0.5-0.2-0.9-0.2-1.3c-0.1-0.4-0.1-0.7-0.1-1.1c-0.5,0.8-1.2,1.4-2.1,1.9c-0.9,0.5-1.8,0.8-2.8,0.8
		c-1.7,0-2.9-0.4-3.8-1.3c-0.9-0.8-1.3-2-1.3-3.5c0-1.5,0.6-2.7,1.8-3.6s2.9-1.3,5-1.3h3.1v-1.6c0-0.9-0.3-1.7-0.8-2.2
		s-1.4-0.8-2.4-0.8c-0.9,0-1.7,0.2-2.3,0.7s-0.9,1-0.9,1.7h-2.8l0-0.1c-0.1-1.2,0.5-2.2,1.6-3.2s2.6-1.4,4.4-1.4
		c1.8,0,3.2,0.5,4.3,1.4s1.6,2.2,1.6,3.9v7.6c0,0.6,0,1.1,0.1,1.6s0.2,1,0.3,1.6H161.6z M156.8,28.4c1,0,2-0.3,2.8-0.8
		s1.4-1.1,1.6-1.8v-2.6H158c-1.2,0-2.1,0.3-2.8,0.9c-0.7,0.6-1,1.3-1,2.1c0,0.7,0.2,1.3,0.7,1.7C155.3,28.2,155.9,28.4,156.8,28.4z"
		/>
	<path d="M178.8,17.2l-1.5-0.1c-0.8,0-1.4,0.2-1.9,0.5c-0.5,0.4-0.9,0.9-1.2,1.5v11.3h-2.9V14.6h2.6l0.3,2.3c0.4-0.8,1-1.5,1.7-1.9
		c0.7-0.5,1.4-0.7,2.3-0.7c0.2,0,0.4,0,0.6,0.1s0.4,0.1,0.5,0.1L178.8,17.2z"/>
	<path d="M190.8,28.5c1,0,1.8-0.3,2.5-0.9s1.1-1.3,1.1-2.2h2.6l0,0.1c0,1.4-0.6,2.6-1.8,3.6c-1.3,1.1-2.7,1.6-4.4,1.6
		c-2.3,0-4.1-0.8-5.3-2.3s-1.8-3.4-1.8-5.7v-0.6c0-2.3,0.6-4.1,1.8-5.6c1.2-1.5,3-2.3,5.3-2.3c1.9,0,3.4,0.5,4.5,1.6s1.7,2.4,1.7,4
		l0,0.1h-2.6c0-1-0.3-1.8-1-2.5s-1.5-1-2.6-1c-1.5,0-2.6,0.5-3.2,1.6s-1,2.4-1,4v0.6c0,1.6,0.3,3,1,4
		C188.2,28,189.3,28.5,190.8,28.5z"/>
	<path d="M206.4,10.6h-2.9V7.6h2.9V10.6z M206.4,30.5h-2.9V14.6h2.9V30.5z"/>
	<path d="M213.2,22.4c0-2.3,0.6-4.3,1.9-5.8s3-2.3,5.2-2.3c2.2,0,3.9,0.8,5.2,2.3c1.3,1.5,1.9,3.4,1.9,5.8v0.3
		c0,2.4-0.6,4.3-1.9,5.8s-3,2.3-5.2,2.3s-3.9-0.8-5.2-2.3c-1.3-1.5-1.9-3.4-1.9-5.8V22.4z M216,22.7c0,1.7,0.4,3.1,1.1,4.2
		c0.7,1.1,1.8,1.6,3.2,1.6c1.4,0,2.4-0.5,3.1-1.6c0.7-1.1,1.1-2.5,1.1-4.2v-0.3c0-1.7-0.4-3-1.1-4.1c-0.7-1.1-1.8-1.7-3.2-1.7
		c-1.4,0-2.4,0.6-3.1,1.7c-0.7,1.1-1.1,2.5-1.1,4.1V22.7z"/>
	<path class="st0" d="M138.5,59.2L138.5,59.2c0.1,2.4-0.6,4.2-2.1,5.6c-1.4,1.3-3.4,2-6,2c-2.6,0-4.7-0.8-6.3-2.5s-2.4-3.8-2.4-6.4
		v-4.2c0-2.6,0.8-4.7,2.3-6.4s3.6-2.5,6.1-2.5c2.6,0,4.7,0.7,6.2,2c1.5,1.4,2.2,3.2,2.2,5.5l0,0.1h-4.2c0-1.4-0.3-2.5-1-3.2
		c-0.7-0.7-1.7-1.1-3.1-1.1c-1.3,0-2.3,0.5-3,1.6s-1.1,2.4-1.1,4v4.3c0,1.6,0.4,3,1.2,4s1.9,1.6,3.2,1.6c1.3,0,2.3-0.4,3-1.1
		c0.6-0.7,1-1.8,1-3.2H138.5z"/>
	<path class="st0" d="M143.6,58.4c0-2.4,0.7-4.3,2-5.8c1.3-1.5,3.1-2.3,5.5-2.3c2.3,0,4.2,0.8,5.5,2.3s2,3.4,2,5.8v0.3
		c0,2.4-0.7,4.3-2,5.8c-1.3,1.5-3.2,2.2-5.5,2.2c-2.3,0-4.2-0.7-5.5-2.2c-1.3-1.5-2-3.4-2-5.8V58.4z M147.8,58.7
		c0,1.4,0.3,2.6,0.8,3.5c0.5,0.9,1.3,1.3,2.5,1.3c1.1,0,1.9-0.4,2.4-1.3c0.5-0.9,0.8-2,0.8-3.5v-0.3c0-1.4-0.3-2.5-0.8-3.4
		s-1.3-1.3-2.4-1.3c-1.1,0-1.9,0.4-2.4,1.3c-0.5,0.9-0.8,2-0.8,3.4V58.7z"/>
	<path class="st0" d="M171.2,66.8c-2.3,0-4.1-0.7-5.5-2.2s-2.1-3.3-2.1-5.6v-0.6c0-2.4,0.6-4.3,1.9-5.8s3-2.3,5.2-2.3
		c2.1,0,3.8,0.6,5,1.9s1.8,3,1.8,5.2v2.3h-9.5l0,0.1c0.1,1,0.4,1.9,1,2.6s1.5,1,2.5,1c0.9,0,1.7-0.1,2.4-0.3
		c0.6-0.2,1.3-0.5,2.1-0.9l1.2,2.6c-0.6,0.5-1.5,1-2.5,1.3C173.6,66.6,172.5,66.8,171.2,66.8z M170.8,53.6c-0.8,0-1.4,0.3-1.9,0.9
		s-0.7,1.4-0.8,2.4l0,0.1h5.2v-0.4c0-0.9-0.2-1.6-0.6-2.2C172.3,53.9,171.7,53.6,170.8,53.6z"/>
	<path class="st0" d="M187.5,66.5h-4.3V43.6h4.3V66.5z"/>
	<path class="st0" d="M198.2,52.6c0.5-0.7,1.1-1.3,1.8-1.7c0.7-0.4,1.5-0.6,2.4-0.6c1.7,0,2.9,0.5,3.9,1.6c0.9,1.1,1.4,2.8,1.4,5.1
		v9.4h-4.3V57c0-1.2-0.2-2.1-0.7-2.6c-0.4-0.5-1.1-0.8-1.9-0.8c-0.6,0-1.1,0.1-1.6,0.3c-0.4,0.2-0.8,0.5-1.1,0.9v11.6h-4.3V43.6h4.3
		V52.6z"/>
	<path class="st0" d="M213.3,58.4c0-2.4,0.7-4.3,2-5.8c1.3-1.5,3.1-2.3,5.5-2.3c2.3,0,4.2,0.8,5.5,2.3s2,3.4,2,5.8v0.3
		c0,2.4-0.7,4.3-2,5.8c-1.3,1.5-3.2,2.2-5.5,2.2c-2.3,0-4.2-0.7-5.5-2.2c-1.3-1.5-2-3.4-2-5.8V58.4z M217.6,58.7
		c0,1.4,0.3,2.6,0.8,3.5c0.5,0.9,1.3,1.3,2.5,1.3c1.1,0,1.9-0.4,2.4-1.3c0.5-0.9,0.8-2,0.8-3.5v-0.3c0-1.4-0.3-2.5-0.8-3.4
		s-1.3-1.3-2.4-1.3c-1.1,0-1.9,0.4-2.4,1.3c-0.5,0.9-0.8,2-0.8,3.4V58.7z"/>
</g>
<g>
	<g>
		<path d="M14.8,42.1l-3.6,0.8v0.3l3.6,0.8l23.5,9.6v8.4L4,46v-6.3l34.3-15.9v8.4L14.8,42.1z"/>
		<path d="M48.4,70.8h-8.9L73.5,4.4h8.9L48.4,70.8z"/>
		<path d="M80.5,32.1v-8.2l35.9,15.9V46L80.5,61.9v-8.2l25.1-10l3.6-0.7v-0.3l-3.6-0.8L80.5,32.1z"/>
	</g>
	<g>
		<linearGradient id="SVGID_1_" gradientUnits="userSpaceOnUse" x1="3.9727" y1="37.6179" x2="116.4697" y2="37.6179">
			<stop  offset="0" style="stop-color:#307EF3"/>
			<stop  offset="1" style="stop-color:#09439A"/>
		</linearGradient>
		<path class="st1" d="M14.8,42.1l-3.6,0.8v0.3l3.6,0.8l23.5,9.6v8.4L4,46v-6.3l34.3-15.9v8.4L14.8,42.1z"/>
		<linearGradient id="SVGID_2_" gradientUnits="userSpaceOnUse" x1="3.9727" y1="37.6179" x2="116.4697" y2="37.6179">
			<stop  offset="0" style="stop-color:#307EF3"/>
			<stop  offset="1" style="stop-color:#09439A"/>
		</linearGradient>
		<path class="st2" d="M48.4,70.8h-8.9L73.5,4.4h8.9L48.4,70.8z"/>
		<linearGradient id="SVGID_3_" gradientUnits="userSpaceOnUse" x1="3.9727" y1="37.6179" x2="116.4697" y2="37.6179">
			<stop  offset="0" style="stop-color:#307EF3"/>
			<stop  offset="1" style="stop-color:#09439A"/>
		</linearGradient>
		<path class="st3" d="M80.5,32.1v-8.2l35.9,15.9V46L80.5,61.9v-8.2l25.1-10l3.6-0.7v-0.3l-3.6-0.8L80.5,32.1z"/>
	</g>
</g>
</svg>
