<?xml version="1.0" encoding="utf-8"?>
<!-- Generator: Adobe Illustrator 23.1.0, SVG Export Plug-In . SVG Version: 6.00 Build 0)  -->
<svg version="1.1" id="Camada_1" xmlns="http://www.w3.org/2000/svg" xmlns:xlink="http://www.w3.org/1999/xlink" x="0px" y="0px"
	 viewBox="0 0 280 75" style="enable-background:new 0 0 280 75;" xml:space="preserve">
<style type="text/css">
	.st0{fill:#09439A;}
	.st1{fill:url(#SVGID_1_);}
	.st2{fill:url(#SVGID_2_);}
	.st3{fill:url(#SVGID_3_);}
</style>
<g>
	<path d="M125.9,21.9v8.6H123V9.2h8.2c2.3,0,4,0.6,5.3,1.8s1.9,2.7,1.9,4.6c0,1.9-0.6,3.5-1.9,4.7s-3,1.7-5.3,1.7H125.9z
		 M125.9,19.7h5.3c1.4,0,2.5-0.4,3.2-1.2s1.1-1.8,1.1-2.9c0-1.2-0.4-2.2-1.1-3c-0.7-0.8-1.8-1.2-3.2-1.2h-5.3V19.7z"/>
	<path d="M152.2,17.2l-1.5-0.1c-0.8,0-1.4,0.2-1.9,0.5c-0.5,0.4-0.9,0.9-1.2,1.5v11.3h-2.9V14.6h2.6l0.3,2.3c0.4-0.8,1-1.5,1.7-1.9
		c0.7-0.5,1.4-0.7,2.3-0.7c0.2,0,0.4,0,0.6,0.1s0.4,0.1,0.5,0.1L152.2,17.2z"/>
	<path d="M157,22.4c0-2.3,0.6-4.3,1.9-5.8s3-2.3,5.2-2.3c2.2,0,3.9,0.8,5.2,2.3c1.3,1.5,1.9,3.4,1.9,5.8v0.3c0,2.4-0.6,4.3-1.9,5.8
		s-3,2.3-5.2,2.3s-3.9-0.8-5.2-2.3c-1.3-1.5-1.9-3.4-1.9-5.8V22.4z M159.9,22.7c0,1.7,0.4,3.1,1.1,4.2c0.7,1.1,1.8,1.6,3.2,1.6
		c1.4,0,2.4-0.5,3.1-1.6c0.7-1.1,1.1-2.5,1.1-4.2v-0.3c0-1.7-0.4-3-1.1-4.1c-0.7-1.1-1.8-1.7-3.2-1.7c-1.4,0-2.4,0.6-3.1,1.7
		c-0.7,1.1-1.1,2.5-1.1,4.1V22.7z"/>
	<path d="M181.1,14.6v17.2c0,1.6-0.4,2.9-1.3,3.8s-2,1.3-3.5,1.3c-0.3,0-0.6,0-0.8-0.1c-0.3,0-0.5-0.1-0.8-0.2l0.2-2.3
		c0.1,0,0.3,0.1,0.6,0.1s0.5,0.1,0.6,0.1c0.6,0,1.1-0.2,1.5-0.6c0.4-0.4,0.6-1.1,0.6-2.1V14.6H181.1z M181,10.5h-2.9V7.6h2.9V10.5z"
		/>
	<path d="M195.1,30.8c-2.2,0-4-0.7-5.3-2.2c-1.3-1.5-2-3.4-2-5.7v-0.6c0-2.3,0.7-4.1,2-5.6c1.3-1.5,2.9-2.2,4.8-2.2
		c2.1,0,3.8,0.6,4.8,1.9s1.6,3,1.6,5.2v1.8h-10.3l0,0.1c0,1.5,0.4,2.8,1.2,3.7c0.7,1,1.8,1.5,3.1,1.5c1,0,1.8-0.1,2.6-0.4
		s1.4-0.7,1.9-1.1l1.1,1.9c-0.6,0.6-1.3,1-2.2,1.4C197.5,30.6,196.4,30.8,195.1,30.8z M194.7,16.6c-1,0-1.8,0.4-2.5,1.2
		c-0.7,0.8-1.1,1.8-1.3,3.1l0,0.1h7.3v-0.4c0-1.1-0.3-2.1-0.9-2.8C196.8,17,195.9,16.6,194.7,16.6z"/>
	<path d="M211.2,10.8v3.8h3v2.1h-3v9.6c0,0.7,0.2,1.3,0.5,1.6c0.3,0.3,0.7,0.5,1.2,0.5c0.2,0,0.3,0,0.5-0.1s0.4-0.1,0.5-0.1l0.4,2
		c-0.2,0.2-0.5,0.3-0.9,0.4s-0.8,0.2-1.3,0.2c-1.2,0-2.1-0.4-2.8-1.1s-1-1.8-1-3.3v-9.6h-2.5v-2.1h2.5v-3.8H211.2z"/>
	<path d="M220.1,22.4c0-2.3,0.6-4.3,1.9-5.8s3-2.3,5.2-2.3c2.2,0,3.9,0.8,5.2,2.3c1.3,1.5,1.9,3.4,1.9,5.8v0.3
		c0,2.4-0.6,4.3-1.9,5.8s-3,2.3-5.2,2.3s-3.9-0.8-5.2-2.3c-1.3-1.5-1.9-3.4-1.9-5.8V22.4z M223,22.7c0,1.7,0.4,3.1,1.1,4.2
		c0.7,1.1,1.8,1.6,3.2,1.6c1.4,0,2.4-0.5,3.1-1.6c0.7-1.1,1.1-2.5,1.1-4.2v-0.3c0-1.7-0.4-3-1.1-4.1c-0.7-1.1-1.8-1.7-3.2-1.7
		c-1.4,0-2.4,0.6-3.1,1.7c-0.7,1.1-1.1,2.5-1.1,4.1V22.7z"/>
	<path class="st0" d="M139.6,57.7c0,2.6-0.8,4.8-2.5,6.5c-1.7,1.7-3.8,2.6-6.5,2.6c-2.6,0-4.8-0.9-6.4-2.6s-2.5-3.9-2.5-6.5v-3.8
		c0-2.6,0.8-4.8,2.5-6.5c1.6-1.7,3.8-2.6,6.4-2.6c2.6,0,4.8,0.9,6.5,2.6c1.7,1.7,2.5,3.9,2.5,6.5V57.7z M135.3,53.9
		c0-1.7-0.4-3-1.2-4.1s-2-1.6-3.4-1.6c-1.5,0-2.6,0.5-3.4,1.6s-1.2,2.4-1.2,4.1v3.9c0,1.7,0.4,3.1,1.2,4.1s1.9,1.6,3.4,1.6
		c1.5,0,2.6-0.5,3.4-1.6s1.2-2.4,1.2-4.1V53.9z"/>
	<path class="st0" d="M153.9,54.3l-1.6,0c-0.6,0-1.2,0.1-1.6,0.4s-0.7,0.6-0.9,1.1v10.7h-4.3V50.6h4l0.2,2.3
		c0.4-0.8,0.9-1.5,1.4-1.9c0.6-0.5,1.3-0.7,2-0.7c0.2,0,0.4,0,0.6,0.1c0.2,0,0.4,0.1,0.5,0.1L153.9,54.3z"/>
	<path class="st0" d="M163.5,46.8h-4.3v-3.2h4.3V46.8z M163.5,66.5h-4.3V50.6h4.3V66.5z"/>
	<path class="st0" d="M177.1,66.8c-2.3,0-4.1-0.7-5.5-2.2s-2.1-3.3-2.1-5.6v-0.6c0-2.4,0.6-4.3,1.9-5.8s3-2.3,5.2-2.3
		c2.1,0,3.8,0.6,5,1.9s1.8,3,1.8,5.2v2.3H174l0,0.1c0.1,1,0.4,1.9,1,2.6s1.5,1,2.5,1c0.9,0,1.7-0.1,2.4-0.3c0.6-0.2,1.3-0.5,2.1-0.9
		l1.2,2.6c-0.6,0.5-1.5,1-2.5,1.3C179.5,66.6,178.4,66.8,177.1,66.8z M176.7,53.6c-0.8,0-1.4,0.3-1.9,0.9s-0.7,1.4-0.8,2.4l0,0.1
		h5.2v-0.4c0-0.9-0.2-1.6-0.6-2.2C178.2,53.9,177.6,53.6,176.7,53.6z"/>
	<path class="st0" d="M192.8,50.6l0.2,2.3c0.5-0.8,1.2-1.4,1.9-1.9s1.6-0.7,2.6-0.7c1.6,0,2.9,0.5,3.8,1.5s1.3,2.6,1.3,4.7v9.9h-4.3
		v-9.9c0-1.1-0.2-1.8-0.6-2.3s-1.1-0.7-1.9-0.7c-0.6,0-1.1,0.1-1.5,0.3c-0.4,0.2-0.8,0.6-1.1,1v11.5h-4.3V50.6H192.8z"/>
	<path class="st0" d="M214,46.8v3.9h2.7v3H214v8.1c0,0.6,0.1,1.1,0.4,1.3s0.6,0.4,1,0.4c0.2,0,0.4,0,0.6,0c0.2,0,0.3-0.1,0.6-0.1
		l0.4,3.1c-0.4,0.1-0.8,0.3-1.3,0.3c-0.4,0.1-0.9,0.1-1.3,0.1c-1.5,0-2.6-0.4-3.4-1.2c-0.8-0.8-1.2-2.1-1.2-3.9v-8.1h-2.3v-3h2.3
		v-3.9H214z"/>
	<path class="st0" d="M231.6,66.5c-0.2-0.4-0.3-0.7-0.4-1.1s-0.2-0.8-0.2-1.2c-0.4,0.8-1,1.4-1.7,1.9c-0.7,0.5-1.6,0.8-2.6,0.8
		c-1.7,0-2.9-0.4-3.8-1.3c-0.9-0.9-1.3-2-1.3-3.5c0-1.6,0.6-2.8,1.8-3.6s2.9-1.3,5.2-1.3h2.4v-1.3c0-0.8-0.2-1.4-0.6-1.8
		s-1-0.6-1.8-0.6c-0.7,0-1.2,0.2-1.6,0.5c-0.4,0.3-0.6,0.8-0.6,1.4l-4.1,0l0-0.1c-0.1-1.3,0.5-2.5,1.7-3.5c1.2-1,2.8-1.5,4.8-1.5
		c1.9,0,3.4,0.5,4.6,1.4c1.2,1,1.8,2.3,1.8,4.1v6.5c0,0.7,0.1,1.4,0.2,2.1c0.1,0.7,0.3,1.3,0.5,1.9H231.6z M227.7,63.6
		c0.8,0,1.4-0.2,2-0.6s1-0.8,1.2-1.3v-2.2h-2.4c-0.9,0-1.6,0.2-2.1,0.7c-0.5,0.5-0.7,1-0.7,1.6c0,0.5,0.2,1,0.5,1.3
		S227.1,63.6,227.7,63.6z"/>
	<path class="st0" d="M240.8,58.7c0-2.5,0.5-4.5,1.6-6s2.6-2.3,4.6-2.3c0.8,0,1.5,0.2,2.1,0.5s1.2,0.8,1.7,1.5v-8.7h4.3v22.9h-3.7
		l-0.4-1.9c-0.5,0.7-1.1,1.3-1.8,1.7c-0.7,0.4-1.5,0.6-2.3,0.6c-1.9,0-3.5-0.7-4.5-2.1s-1.6-3.3-1.6-5.7V58.7z M245.1,59
		c0,1.4,0.2,2.5,0.7,3.3s1.2,1.2,2.3,1.2c0.6,0,1.2-0.1,1.6-0.4c0.5-0.3,0.8-0.6,1.1-1.1v-6.8c-0.3-0.5-0.7-0.9-1.1-1.2
		c-0.5-0.3-1-0.4-1.6-0.4c-1,0-1.8,0.5-2.3,1.4c-0.5,0.9-0.7,2.2-0.7,3.7V59z"/>
	<path class="st0" d="M260.7,58.4c0-2.4,0.7-4.3,2-5.8c1.3-1.5,3.1-2.3,5.5-2.3c2.3,0,4.2,0.8,5.5,2.3s2,3.4,2,5.8v0.3
		c0,2.4-0.7,4.3-2,5.8c-1.3,1.5-3.2,2.2-5.5,2.2c-2.3,0-4.2-0.7-5.5-2.2c-1.3-1.5-2-3.4-2-5.8V58.4z M265,58.7
		c0,1.4,0.3,2.6,0.8,3.5c0.5,0.9,1.3,1.3,2.5,1.3c1.1,0,1.9-0.4,2.4-1.3c0.5-0.9,0.8-2,0.8-3.5v-0.3c0-1.4-0.3-2.5-0.8-3.4
		s-1.3-1.3-2.4-1.3c-1.1,0-1.9,0.4-2.4,1.3c-0.5,0.9-0.8,2-0.8,3.4V58.7z"/>
</g>
<g>
	<g>
		<path d="M14.8,42.1l-3.6,0.8v0.3l3.6,0.8l23.5,9.6v8.4L4,46v-6.3l34.3-15.9v8.4L14.8,42.1z"/>
		<path d="M48.4,70.8h-8.9L73.5,4.4h8.9L48.4,70.8z"/>
		<path d="M80.5,32.1v-8.2l35.9,15.9V46L80.5,61.9v-8.2l25.1-10l3.6-0.7v-0.3l-3.6-0.8L80.5,32.1z"/>
	</g>
	<g>
		<linearGradient id="SVGID_1_" gradientUnits="userSpaceOnUse" x1="3.9727" y1="37.6179" x2="116.4697" y2="37.6179">
			<stop  offset="0" style="stop-color:#307EF3"/>
			<stop  offset="1" style="stop-color:#09439A"/>
		</linearGradient>
		<path class="st1" d="M14.8,42.1l-3.6,0.8v0.3l3.6,0.8l23.5,9.6v8.4L4,46v-6.3l34.3-15.9v8.4L14.8,42.1z"/>
		<linearGradient id="SVGID_2_" gradientUnits="userSpaceOnUse" x1="3.9727" y1="37.6179" x2="116.4697" y2="37.6179">
			<stop  offset="0" style="stop-color:#307EF3"/>
			<stop  offset="1" style="stop-color:#09439A"/>
		</linearGradient>
		<path class="st2" d="M48.4,70.8h-8.9L73.5,4.4h8.9L48.4,70.8z"/>
		<linearGradient id="SVGID_3_" gradientUnits="userSpaceOnUse" x1="3.9727" y1="37.6179" x2="116.4697" y2="37.6179">
			<stop  offset="0" style="stop-color:#307EF3"/>
			<stop  offset="1" style="stop-color:#09439A"/>
		</linearGradient>
		<path class="st3" d="M80.5,32.1v-8.2l35.9,15.9V46L80.5,61.9v-8.2l25.1-10l3.6-0.7v-0.3l-3.6-0.8L80.5,32.1z"/>
	</g>
</g>
</svg>
