<?xml version="1.0" encoding="utf-8"?>
<!-- Generator: Adobe Illustrator 23.1.0, SVG Export Plug-In . SVG Version: 6.00 Build 0)  -->
<svg version="1.1" id="Camada_1" xmlns="http://www.w3.org/2000/svg" xmlns:xlink="http://www.w3.org/1999/xlink" x="0px" y="0px"
	 viewBox="0 0 120 75" style="enable-background:new 0 0 120 75;" xml:space="preserve">
<style type="text/css">
	.st0{fill:url(#SVGID_1_);}
	.st1{fill:url(#SVGID_2_);}
	.st2{fill:url(#SVGID_3_);}
</style>
<g>
	<g>
		<path d="M14.8,42.1l-3.6,0.8v0.3l3.6,0.8l23.5,9.6v8.4L4,46v-6.3l34.3-15.9v8.4L14.8,42.1z"/>
		<path d="M48.4,70.8h-8.9L73.5,4.4h8.9L48.4,70.8z"/>
		<path d="M80.5,32.1v-8.2l35.9,15.9V46L80.5,61.9v-8.2l25.1-10l3.6-0.7v-0.3l-3.6-0.8L80.5,32.1z"/>
	</g>
	<g>
		<linearGradient id="SVGID_1_" gradientUnits="userSpaceOnUse" x1="3.9727" y1="37.6179" x2="116.4697" y2="37.6179">
			<stop  offset="0" style="stop-color:#307EF3"/>
			<stop  offset="1" style="stop-color:#09439A"/>
		</linearGradient>
		<path class="st0" d="M14.8,42.1l-3.6,0.8v0.3l3.6,0.8l23.5,9.6v8.4L4,46v-6.3l34.3-15.9v8.4L14.8,42.1z"/>
		<linearGradient id="SVGID_2_" gradientUnits="userSpaceOnUse" x1="3.9727" y1="37.6179" x2="116.4697" y2="37.6179">
			<stop  offset="0" style="stop-color:#307EF3"/>
			<stop  offset="1" style="stop-color:#09439A"/>
		</linearGradient>
		<path class="st1" d="M48.4,70.8h-8.9L73.5,4.4h8.9L48.4,70.8z"/>
		<linearGradient id="SVGID_3_" gradientUnits="userSpaceOnUse" x1="3.9727" y1="37.6179" x2="116.4697" y2="37.6179">
			<stop  offset="0" style="stop-color:#307EF3"/>
			<stop  offset="1" style="stop-color:#09439A"/>
		</linearGradient>
		<path class="st2" d="M80.5,32.1v-8.2l35.9,15.9V46L80.5,61.9v-8.2l25.1-10l3.6-0.7v-0.3l-3.6-0.8L80.5,32.1z"/>
	</g>
</g>
</svg>
